<svg width="360" height="100" xmlns="http://www.w3.org/2000/svg" xml:space="preserve" version="1.1" style="shape-rendering:geometricPrecision; text-rendering:geometricPrecision; image-rendering:optimizeQuality; fill-rule:evenodd; clip-rule:evenodd" viewBox="0 0 360 100" xmlns:xlink="http://www.w3.org/1999/xlink" id="el_VIDw9dsWx"><style type="text/css">@-webkit-keyframes kf_el_V9WKl5jmVJ_an_YXOaWS5sJ {
    0% {
        -webkit-transform: translate(135.79px, 77.27px) scale(1, 1) translate(-135.79px, -77.27px);
                transform: translate(135.79px, 77.27px) scale(1, 1) translate(-135.79px, -77.27px)
    }
    10% {
        -webkit-transform: translate(135.79px, 77.27px) scale(1.3, 1.3) translate(-135.79px, -77.27px);
                transform: translate(135.79px, 77.27px) scale(1.3, 1.3) translate(-135.79px, -77.27px)
    }
    20% {
        -webkit-transform: translate(135.79px, 77.27px) scale(1, 1) translate(-135.79px, -77.27px);
                transform: translate(135.79px, 77.27px) scale(1, 1) translate(-135.79px, -77.27px)
    }
    30% {
        -webkit-transform: translate(135.79px, 77.27px) scale(1.3, 1.3) translate(-135.79px, -77.27px);
                transform: translate(135.79px, 77.27px) scale(1.3, 1.3) translate(-135.79px, -77.27px)
    }
    40% {
        -webkit-transform: translate(135.79px, 77.27px) scale(1, 1) translate(-135.79px, -77.27px);
                transform: translate(135.79px, 77.27px) scale(1, 1) translate(-135.79px, -77.27px)
    }
    50% {
        -webkit-transform: translate(135.79px, 77.27px) scale(1.3, 1.3) translate(-135.79px, -77.27px);
                transform: translate(135.79px, 77.27px) scale(1.3, 1.3) translate(-135.79px, -77.27px)
    }
    60% {
        -webkit-transform: translate(135.79px, 77.27px) scale(1, 1) translate(-135.79px, -77.27px);
                transform: translate(135.79px, 77.27px) scale(1, 1) translate(-135.79px, -77.27px)
    }
    70% {
        -webkit-transform: translate(135.79px, 77.27px) scale(1.3, 1.3) translate(-135.79px, -77.27px);
                transform: translate(135.79px, 77.27px) scale(1.3, 1.3) translate(-135.79px, -77.27px)
    }
    80% {
        -webkit-transform: translate(135.79px, 77.27px) scale(1, 1) translate(-135.79px, -77.27px);
                transform: translate(135.79px, 77.27px) scale(1, 1) translate(-135.79px, -77.27px)
    }
    90% {
        -webkit-transform: translate(135.79px, 77.27px) scale(1.3, 1.3) translate(-135.79px, -77.27px);
                transform: translate(135.79px, 77.27px) scale(1.3, 1.3) translate(-135.79px, -77.27px)
    }
    100% {
        -webkit-transform: translate(135.79px, 77.27px) scale(1, 1) translate(-135.79px, -77.27px);
                transform: translate(135.79px, 77.27px) scale(1, 1) translate(-135.79px, -77.27px)
    }
}
@keyframes kf_el_V9WKl5jmVJ_an_YXOaWS5sJ {
    0% {
        -webkit-transform: translate(135.79px, 77.27px) scale(1, 1) translate(-135.79px, -77.27px);
                transform: translate(135.79px, 77.27px) scale(1, 1) translate(-135.79px, -77.27px)
    }
    10% {
        -webkit-transform: translate(135.79px, 77.27px) scale(1.3, 1.3) translate(-135.79px, -77.27px);
                transform: translate(135.79px, 77.27px) scale(1.3, 1.3) translate(-135.79px, -77.27px)
    }
    20% {
        -webkit-transform: translate(135.79px, 77.27px) scale(1, 1) translate(-135.79px, -77.27px);
                transform: translate(135.79px, 77.27px) scale(1, 1) translate(-135.79px, -77.27px)
    }
    30% {
        -webkit-transform: translate(135.79px, 77.27px) scale(1.3, 1.3) translate(-135.79px, -77.27px);
                transform: translate(135.79px, 77.27px) scale(1.3, 1.3) translate(-135.79px, -77.27px)
    }
    40% {
        -webkit-transform: translate(135.79px, 77.27px) scale(1, 1) translate(-135.79px, -77.27px);
                transform: translate(135.79px, 77.27px) scale(1, 1) translate(-135.79px, -77.27px)
    }
    50% {
        -webkit-transform: translate(135.79px, 77.27px) scale(1.3, 1.3) translate(-135.79px, -77.27px);
                transform: translate(135.79px, 77.27px) scale(1.3, 1.3) translate(-135.79px, -77.27px)
    }
    60% {
        -webkit-transform: translate(135.79px, 77.27px) scale(1, 1) translate(-135.79px, -77.27px);
                transform: translate(135.79px, 77.27px) scale(1, 1) translate(-135.79px, -77.27px)
    }
    70% {
        -webkit-transform: translate(135.79px, 77.27px) scale(1.3, 1.3) translate(-135.79px, -77.27px);
                transform: translate(135.79px, 77.27px) scale(1.3, 1.3) translate(-135.79px, -77.27px)
    }
    80% {
        -webkit-transform: translate(135.79px, 77.27px) scale(1, 1) translate(-135.79px, -77.27px);
                transform: translate(135.79px, 77.27px) scale(1, 1) translate(-135.79px, -77.27px)
    }
    90% {
        -webkit-transform: translate(135.79px, 77.27px) scale(1.3, 1.3) translate(-135.79px, -77.27px);
                transform: translate(135.79px, 77.27px) scale(1.3, 1.3) translate(-135.79px, -77.27px)
    }
    100% {
        -webkit-transform: translate(135.79px, 77.27px) scale(1, 1) translate(-135.79px, -77.27px);
                transform: translate(135.79px, 77.27px) scale(1, 1) translate(-135.79px, -77.27px)
    }
}
@-webkit-keyframes kf_el_tF7xq-nB7B_an_TrOTX1FjU {
    0% {
        -webkit-transform: translate(49.99999809265137px, 50.00109672546387px) rotate(0deg) translate(-49.99999809265137px, -50.00109672546387px);
                transform: translate(49.99999809265137px, 50.00109672546387px) rotate(0deg) translate(-49.99999809265137px, -50.00109672546387px)
    }
    100% {
        -webkit-transform: translate(49.99999809265137px, 50.00109672546387px) rotate(180deg) translate(-49.99999809265137px, -50.00109672546387px);
                transform: translate(49.99999809265137px, 50.00109672546387px) rotate(180deg) translate(-49.99999809265137px, -50.00109672546387px)
    }
}
@keyframes kf_el_tF7xq-nB7B_an_TrOTX1FjU {
    0% {
        -webkit-transform: translate(49.99999809265137px, 50.00109672546387px) rotate(0deg) translate(-49.99999809265137px, -50.00109672546387px);
                transform: translate(49.99999809265137px, 50.00109672546387px) rotate(0deg) translate(-49.99999809265137px, -50.00109672546387px)
    }
    100% {
        -webkit-transform: translate(49.99999809265137px, 50.00109672546387px) rotate(180deg) translate(-49.99999809265137px, -50.00109672546387px);
                transform: translate(49.99999809265137px, 50.00109672546387px) rotate(180deg) translate(-49.99999809265137px, -50.00109672546387px)
    }
}
#el_VIDw9dsWx * {
    -webkit-animation-duration: 5s;
            animation-duration: 5s;
    -webkit-animation-iteration-count: infinite;
            animation-iteration-count: infinite;
    -webkit-animation-timing-function: cubic-bezier(0, 0, 1, 1);
            animation-timing-function: cubic-bezier(0, 0, 1, 1)
}
#el_OrXi4mqGD5 {
    fill: #2b3b42
}
#el_ivW9S6sQvr {
    fill: #20232a
}
#el_tF7xq-nB7B_an_TrOTX1FjU {
    -webkit-animation-fill-mode: backwards;
            animation-fill-mode: backwards;
    -webkit-transform: translate(49.99999809265137px, 50.00109672546387px) rotate(0deg) translate(-49.99999809265137px, -50.00109672546387px);
            transform: translate(49.99999809265137px, 50.00109672546387px) rotate(0deg) translate(-49.99999809265137px, -50.00109672546387px);
    -webkit-animation-name: kf_el_tF7xq-nB7B_an_TrOTX1FjU;
            animation-name: kf_el_tF7xq-nB7B_an_TrOTX1FjU;
    -webkit-animation-timing-function: cubic-bezier(0, 0, 1, 1);
            animation-timing-function: cubic-bezier(0, 0, 1, 1)
}
#el_V9WKl5jmVJ_an_YXOaWS5sJ {
    -webkit-animation-fill-mode: backwards;
            animation-fill-mode: backwards;
    -webkit-transform: translate(135.79px, 77.27px) scale(1, 1) translate(-135.79px, -77.27px);
            transform: translate(135.79px, 77.27px) scale(1, 1) translate(-135.79px, -77.27px);
    -webkit-animation-name: kf_el_V9WKl5jmVJ_an_YXOaWS5sJ;
            animation-name: kf_el_V9WKl5jmVJ_an_YXOaWS5sJ;
    -webkit-animation-timing-function: cubic-bezier(0, 0, 1, 1);
            animation-timing-function: cubic-bezier(0, 0, 1, 1)
}
#el_tF7xq-nB7B {
    fill: #61dafb
}
#el_ul_lXTaW12 {
    fill: rgb(255, 255, 255)
}
#el_V9WKl5jmVJ {
    fill: #ffffff
}
#el_Qb0zHMJsxT {
    fill: #00b462
}</style><style/>
 <defs>
  
 </defs>
 <g id="el_PVRpaPOG0k">
  <g id="el_7fbEUPJeNd">
   <path d="M17.62 0l324.76 0c9.69,0 17.62,7.93 17.62,17.62l0 64.76c0,9.69 -7.93,17.62 -17.62,17.62l-324.76 0c-9.69,0 -17.62,-7.93 -17.62,-17.62l0 -64.76c0,-9.69 7.93,-17.62 17.62,-17.62z" id="el_OrXi4mqGD5"/>
   <path d="M294.25 26.9c0,-1.63 1.32,-2.95 2.95,-2.95 1.63,0 2.95,1.32 2.95,2.95 0,1.63 -1.32,2.95 -2.95,2.95 -1.63,0 -2.95,-1.32 -2.95,-2.95zm-37.08 52.04l0 -37.67 -6.93 0c-0.41,0 -0.78,-0.17 -1.13,-0.52 -0.34,-0.34 -0.52,-0.72 -0.52,-1.12 0,-0.52 0.16,-0.93 0.48,-1.21 0.32,-0.29 0.71,-0.44 1.17,-0.44l6.93 0 0 -10.56c0,-3.41 0.9,-5.99 2.72,-7.75 1.82,-1.76 4.14,-2.64 6.97,-2.64 1.45,0 2.82,0.19 4.12,0.56 1.3,0.38 1.95,1 1.95,1.86 0,0.46 -0.18,0.87 -0.52,1.22 -0.35,0.34 -0.73,0.51 -1.13,0.51 -0.46,0 -1.07,-0.14 -1.82,-0.43 -1.33,-0.4 -2.31,-0.6 -2.94,-0.6 -1.79,0 -3.22,0.6 -4.29,1.81 -1.07,1.22 -1.6,3.03 -1.6,5.46l0 10.56 10.22 0c0.46,0 0.85,0.16 1.17,0.48 0.31,0.32 0.47,0.71 0.47,1.17 0,0.46 -0.16,0.85 -0.47,1.17 -0.32,0.32 -0.71,0.47 -1.17,0.47l-10.22 0 0 37.67c0,0.46 -0.17,0.87 -0.52,1.21 -0.35,0.35 -0.75,0.52 -1.21,0.52 -0.52,0 -0.94,-0.17 -1.26,-0.52 -0.32,-0.34 -0.47,-0.75 -0.47,-1.21zm22.72 0l0 -60.61c0,-0.46 0.17,-0.87 0.52,-1.21 0.34,-0.35 0.75,-0.52 1.21,-0.52 0.52,0 0.94,0.17 1.26,0.52 0.31,0.34 0.47,0.75 0.47,1.21l0 60.61c0,0.46 -0.17,0.87 -0.52,1.21 -0.34,0.35 -0.75,0.52 -1.21,0.52 -0.52,0 -0.94,-0.17 -1.26,-0.52 -0.31,-0.34 -0.47,-0.75 -0.47,-1.21zm15.62 0l0 -41.13c0,-0.46 0.18,-0.87 0.52,-1.21 0.35,-0.35 0.75,-0.52 1.21,-0.52 0.52,0 0.94,0.17 1.26,0.52 0.32,0.34 0.48,0.75 0.48,1.21l0 41.13c0,0.46 -0.18,0.87 -0.52,1.21 -0.35,0.35 -0.76,0.52 -1.22,0.52 -0.52,0 -0.93,-0.17 -1.25,-0.52 -0.32,-0.34 -0.48,-0.75 -0.48,-1.21zm11.99 -0.61l14.89 -19.31 -15.07 -19.65c-0.23,-0.29 -0.34,-0.64 -0.34,-1.04 0,-0.52 0.19,-0.95 0.56,-1.3 0.38,-0.35 0.79,-0.52 1.26,-0.52 0.57,0 1.04,0.26 1.38,0.78l14.38 18.79 14.11 -18.79c0.46,-0.52 0.95,-0.78 1.47,-0.78 0.52,0 0.93,0.15 1.21,0.43 0.29,0.29 0.44,0.64 0.44,1.04 0,0.35 -0.15,0.72 -0.44,1.13l-14.72 19.74 14.81 19.4c0.23,0.29 0.35,0.63 0.35,1.04 0,0.46 -0.16,0.86 -0.48,1.21 -0.32,0.35 -0.71,0.52 -1.17,0.52 -0.52,0 -1.01,-0.26 -1.47,-0.78l-14.2 -18.53 -14.29 18.62c-0.34,0.46 -0.81,0.69 -1.38,0.69 -0.47,0 -0.86,-0.15 -1.17,-0.43 -0.32,-0.29 -0.48,-0.7 -0.48,-1.22 0,-0.4 0.12,-0.75 0.35,-1.04z" id="el_Qb0zHMJsxT"/>
   <path d="M236.9 26.9c0,-1.63 1.32,-2.95 2.95,-2.95 1.63,0 2.95,1.32 2.95,2.95 0,1.63 -1.32,2.95 -2.95,2.95 -1.63,0 -2.95,-1.32 -2.95,-2.95zm-99.03 9.18c5.14,0 9,1.51 11.6,4.54 2.6,3.04 3.9,6.98 3.9,11.82l0 26.5c0,0.46 -0.17,0.87 -0.52,1.21 -0.35,0.35 -0.75,0.52 -1.21,0.52 -0.52,0 -0.94,-0.17 -1.26,-0.52 -0.32,-0.34 -0.47,-0.75 -0.47,-1.21l0 -26.15c0,-3.93 -1.03,-7.14 -3.08,-9.65 -2.05,-2.52 -5.15,-3.77 -9.31,-3.77 -1.15,0 -2.3,0 -3.46,0 -4.16,0 -7.26,1.25 -9.31,3.77 -2.05,2.51 -3.07,5.72 -3.07,9.65l0 26.15c0,0.46 -0.16,0.87 -0.48,1.21 -0.32,0.35 -0.74,0.52 -1.25,0.52 -0.47,0 -0.87,-0.17 -1.22,-0.52 -0.34,-0.34 -0.52,-0.75 -0.52,-1.21l0 -26.5c0,-4.84 1.3,-8.78 3.9,-11.82 2.6,-3.03 6.47,-4.54 11.6,-4.54 1.39,0 2.77,0 4.16,0zm100.29 42.86l0 -41.13c0,-0.46 0.18,-0.87 0.52,-1.21 0.35,-0.35 0.75,-0.52 1.22,-0.52 0.52,0 0.93,0.17 1.25,0.52 0.32,0.34 0.48,0.75 0.48,1.21l0 41.13c0,0.46 -0.17,0.87 -0.52,1.21 -0.35,0.35 -0.75,0.52 -1.21,0.52 -0.52,0 -0.94,-0.17 -1.26,-0.52 -0.32,-0.34 -0.48,-0.75 -0.48,-1.21zm-21.59 -7.53l0 -31 -7.1 0c-0.41,0 -0.78,-0.18 -1.13,-0.52 -0.35,-0.35 -0.52,-0.72 -0.52,-1.13 0,-0.46 0.16,-0.85 0.48,-1.17 0.31,-0.31 0.7,-0.47 1.17,-0.47l7.1 0 0 -11c0,-0.46 0.17,-0.87 0.52,-1.21 0.34,-0.35 0.75,-0.52 1.21,-0.52 0.52,0 0.94,0.17 1.25,0.52 0.32,0.34 0.48,0.75 0.48,1.21l0 11 9.53 0c0.4,0 0.78,0.17 1.12,0.52 0.35,0.34 0.52,0.72 0.52,1.12 0,0.46 -0.16,0.85 -0.48,1.17 -0.31,0.32 -0.7,0.48 -1.16,0.48l-9.53 0 0 30.82c0,2.54 0.45,4.23 1.34,5.07 0.9,0.84 2.04,1.26 3.42,1.26 0.23,0 0.57,-0.06 1,-0.18 0.43,-0.11 0.79,-0.17 1.08,-0.17 0.41,0 0.75,0.16 1.04,0.48 0.29,0.31 0.43,0.67 0.43,1.08 0,0.52 -0.34,0.96 -1.04,1.34 -0.69,0.37 -1.5,0.56 -2.42,0.56 -1.44,0 -2.66,-0.1 -3.64,-0.3 -0.98,-0.2 -2,-0.98 -3.07,-2.34 -1.07,-1.35 -1.6,-3.56 -1.6,-6.62zm-55.89 -12.6c0,-12.56 10.18,-22.73 22.73,-22.73 12.55,0 22.73,10.17 22.73,22.73 0,12.55 -10.18,22.73 -22.73,22.73 -12.55,0 -22.73,-10.18 -22.73,-22.73zm42.17 0c0,-10.74 -8.7,-19.44 -19.44,-19.44 -10.74,0 -19.44,8.7 -19.44,19.44 0,10.73 8.7,19.44 19.44,19.44 10.74,0 19.44,-8.71 19.44,-19.44z" id="el_ul_lXTaW12"/>
   <g id="el_V9WKl5jmVJ_an_YXOaWS5sJ" data-animator-group="true" data-animator-type="2"><path d="M135.79 73.87c1.88,0 3.4,1.52 3.4,3.4 0,1.88 -1.52,3.4 -3.4,3.4 -1.88,0 -3.4,-1.52 -3.4,-3.4 0,-1.88 1.52,-3.4 3.4,-3.4z" id="el_V9WKl5jmVJ"/></g>
   <path d="M100 0l-82.38 0c-9.69,0 -17.62,7.93 -17.62,17.62l0 64.76c0,9.69 7.93,17.62 17.62,17.62l82.38 0 0 -100z" id="el_ivW9S6sQvr"/>
   <g id="el_tF7xq-nB7B_an_TrOTX1FjU" data-animator-group="true" data-animator-type="1"><path d="M73.81 38.43l0 0zm0 0c-0.8,-0.26 -1.59,-0.51 -2.38,-0.75 0.13,-0.54 0.25,-1.08 0.36,-1.63 1.81,-8.74 0.62,-15.77 -3.39,-18.09 -3.86,-2.22 -10.15,0.09 -16.52,5.63 -0.63,0.55 -1.25,1.12 -1.84,1.69 -0.39,-0.38 -0.8,-0.76 -1.22,-1.13 -6.67,-5.93 -13.37,-8.42 -17.37,-6.09 -3.85,2.23 -4.99,8.85 -3.38,17.13 0.16,0.82 0.34,1.63 0.54,2.45 -0.93,0.26 -1.86,0.56 -2.72,0.86 -7.84,2.72 -13.46,7 -13.46,11.44 0,4.58 5.98,9.17 14.13,11.96 0.66,0.22 1.32,0.44 2,0.63 -0.22,0.88 -0.41,1.75 -0.59,2.64 -1.54,8.15 -0.34,14.61 3.51,16.82 3.96,2.29 10.62,-0.06 17.11,-5.74 0.51,-0.45 1.03,-0.92 1.54,-1.42 0.65,0.63 1.32,1.23 2,1.82 6.28,5.4 12.49,7.59 16.32,5.37 3.96,-2.29 5.25,-9.23 3.58,-17.68 -0.13,-0.65 -0.28,-1.31 -0.44,-1.99 0.47,-0.13 0.92,-0.27 1.38,-0.42 8.47,-2.8 14.6,-7.34 14.6,-11.99 0,-4.45 -5.78,-8.76 -13.76,-11.51zm-19.86 -12.46c5.46,-4.75 10.55,-6.62 12.87,-5.28 2.48,1.42 3.43,7.17 1.88,14.73 -0.1,0.5 -0.21,0.99 -0.34,1.47 -3.26,-0.73 -6.56,-1.26 -9.88,-1.56 -1.91,-2.73 -3.99,-5.34 -6.25,-7.79 0.57,-0.54 1.13,-1.06 1.72,-1.57zm0 0l0 0zm-16.98 31.59c0.75,1.27 1.51,2.55 2.31,3.8 -2.28,-0.25 -4.56,-0.62 -6.81,-1.1 0.65,-2.12 1.46,-4.3 2.4,-6.54 0.67,1.3 1.36,2.57 2.1,3.84zm0 0l0 0zm-4.45 -17.66c2.11,-0.47 4.36,-0.85 6.69,-1.15 -0.78,1.22 -1.54,2.47 -2.26,3.73 -0.72,1.25 -1.42,2.53 -2.08,3.82 -0.93,-2.19 -1.71,-4.33 -2.35,-6.4zm0 0l0 0zm4.02 10.11c0.97,-2.02 2.03,-4.01 3.14,-5.96 1.12,-1.95 2.32,-3.84 3.58,-5.71 2.2,-0.16 4.45,-0.25 6.74,-0.25 2.29,0 4.55,0.09 6.74,0.25 1.24,1.85 2.43,3.75 3.56,5.68 1.13,1.94 2.19,3.92 3.19,5.93 -0.99,2.03 -2.04,4.02 -3.17,5.99 -1.12,1.95 -2.31,3.85 -3.55,5.72 -2.19,0.17 -4.47,0.24 -6.77,0.24 -2.31,0 -4.54,-0.07 -6.69,-0.21 -1.28,-1.86 -2.48,-3.77 -3.61,-5.72 -1.13,-1.95 -2.18,-3.93 -3.16,-5.96zm0 0l0 0zm26.51 7.52c0.75,-1.3 1.45,-2.6 2.14,-3.92 0.94,2.13 1.76,4.28 2.48,6.5 -2.27,0.51 -4.58,0.91 -6.9,1.17 0.79,-1.23 1.54,-2.49 2.28,-3.75zm2.11 -11.23c-0.69,-1.29 -1.39,-2.58 -2.13,-3.85 -0.72,-1.24 -1.47,-2.48 -2.24,-3.7 2.36,0.3 4.62,0.69 6.73,1.18 -0.67,2.17 -1.46,4.28 -2.36,6.37zm0 0l0 0zm-15.13 -16.51c1.54,1.67 2.99,3.43 4.34,5.25 -2.9,-0.13 -5.82,-0.13 -8.73,0 1.44,-1.89 2.92,-3.65 4.39,-5.25zm-17.03 -9c2.47,-1.44 7.94,0.62 13.71,5.72 0.37,0.33 0.74,0.68 1.12,1.03 -2.28,2.45 -4.38,5.06 -6.3,7.79 -3.32,0.3 -6.6,0.81 -9.86,1.53 -0.19,-0.75 -0.35,-1.51 -0.52,-2.27 -1.38,-7.11 -0.47,-12.47 1.85,-13.8zm0 0l0 0zm-3.59 38.69c-0.62,-0.18 -1.22,-0.37 -1.82,-0.57 -3.13,-0.99 -6.68,-2.54 -9.25,-4.58 -1.48,-1.03 -2.48,-2.62 -2.76,-4.39 0,-2.69 4.64,-6.12 11.33,-8.46 0.84,-0.29 1.69,-0.55 2.54,-0.8 1,3.18 2.2,6.31 3.6,9.33 -1.41,3.07 -2.63,6.24 -3.64,9.47zm0 0l0 0zm17.11 14.38c-2.42,2.22 -5.22,3.98 -8.28,5.18 -1.63,0.78 -3.5,0.85 -5.18,0.19 -2.33,-1.35 -3.3,-6.53 -1.98,-13.5 0.16,-0.82 0.34,-1.64 0.54,-2.45 3.29,0.7 6.61,1.19 9.97,1.44 1.94,2.74 4.06,5.37 6.34,7.83 -0.47,0.46 -0.94,0.9 -1.41,1.31zm0 0l0 0zm3.6 -3.57c-1.5,-1.61 -3,-3.4 -4.45,-5.32 1.41,0.06 2.86,0.08 4.33,0.08 1.51,0 2.99,-0.02 4.46,-0.1 -1.35,1.87 -2.8,3.64 -4.34,5.34zm0 0l0 0zm19.18 4.41c-0.13,1.79 -1.01,3.46 -2.42,4.59 -2.34,1.35 -7.31,-0.41 -12.68,-5.02 -0.62,-0.53 -1.24,-1.1 -1.87,-1.69 2.25,-2.48 4.32,-5.1 6.2,-7.86 3.36,-0.28 6.7,-0.79 10.01,-1.54 0.14,0.6 0.28,1.2 0.39,1.79 0.72,3.17 0.84,6.47 0.37,9.73zm0 0l0 0zm2.67 -15.78c-0.41,0.13 -0.82,0.26 -1.25,0.38 -1.03,-3.2 -2.29,-6.32 -3.74,-9.36 1.41,-3 2.6,-6.08 3.6,-9.23 0.76,0.22 1.49,0.45 2.2,0.69 6.84,2.34 11.64,5.84 11.64,8.51 0,2.87 -5.13,6.59 -12.45,9.01zm0 0l0 0zm-21.97 -2.2c3.71,0 6.72,-3.01 6.72,-6.72 0,-3.72 -3.01,-6.73 -6.72,-6.73 -3.71,0 -6.72,3.01 -6.72,6.73 0,3.71 3.01,6.72 6.72,6.72z" id="el_tF7xq-nB7B"/></g>
  </g>
 </g>
</svg>